<?xml version="1.0" standalone="no"?>
<!DOCTYPE svg PUBLIC "-//W3C//DTD SVG 20010904//EN"
 "http://www.w3.org/TR/2001/REC-SVG-20010904/DTD/svg10.dtd">
<svg version="1.0" xmlns="http://www.w3.org/2000/svg"
 width="1118.000000pt" height="1280.000000pt" viewBox="0 0 1118.000000 1280.000000"
 preserveAspectRatio="xMidYMid meet">
<metadata>
Created by potrace 1.15, written by Peter Selinger 2001-2017
</metadata>
<g transform="translate(0.000000,1280.000000) scale(0.100000,-0.100000)"
fill="#000000" stroke="none">
<path d="M4756 12785 c-11 -8 -31 -15 -45 -15 -14 0 -70 -15 -124 -34 -68 -23
-110 -32 -135 -29 -69 8 -326 -24 -370 -46 -23 -12 -58 -21 -79 -21 -21 0 -58
-10 -83 -21 -81 -37 -133 -49 -240 -55 -85 -5 -115 -11 -154 -31 -43 -22 -57
-24 -112 -18 -73 8 -95 -1 -140 -53 l-32 -36 -32 27 c-38 33 -51 33 -76 6 -27
-30 -77 -54 -186 -89 -51 -16 -128 -51 -172 -77 -43 -27 -102 -62 -130 -79
-29 -17 -77 -51 -108 -75 -111 -88 -133 -104 -160 -116 -16 -7 -33 -23 -40
-38 -15 -33 -28 -32 -68 10 -18 19 -49 40 -67 46 -32 10 -36 9 -88 -36 -61
-51 -108 -107 -150 -175 -27 -43 -69 -93 -196 -233 -31 -34 -62 -79 -69 -100
-7 -22 -33 -64 -58 -95 -25 -31 -56 -75 -68 -97 -11 -23 -26 -50 -32 -60 -16
-28 -62 -162 -72 -210 -5 -22 -14 -125 -21 -228 -10 -151 -10 -208 1 -288 15
-121 10 -131 -51 -104 l-41 19 -30 -34 c-28 -31 -30 -37 -25 -90 6 -52 41
-167 96 -315 13 -33 32 -112 43 -175 10 -63 32 -168 49 -232 16 -64 29 -127
29 -140 0 -29 56 -148 69 -148 6 0 22 -22 36 -49 29 -58 63 -87 119 -102 52
-13 86 -35 86 -54 0 -8 -16 -36 -36 -61 -19 -26 -44 -64 -54 -85 l-19 -37 25
-17 c14 -9 56 -28 92 -41 140 -53 192 -98 192 -169 0 -30 6 -47 23 -63 32 -30
51 -28 81 10 22 29 31 32 89 36 83 5 121 -8 221 -76 45 -30 137 -89 206 -130
68 -41 138 -85 155 -97 75 -57 232 -122 347 -145 61 -12 111 -51 122 -96 9
-33 -25 -96 -86 -160 l-50 -53 -28 21 c-32 24 -62 20 -103 -13 -34 -26 -34
-36 3 -57 44 -25 64 -69 56 -123 -13 -93 -14 -92 21 -101 42 -11 50 -27 67
-140 39 -244 49 -403 52 -807 3 -397 4 -404 25 -427 11 -12 44 -28 72 -35 89
-21 166 -115 137 -169 -6 -11 -20 -20 -31 -20 -36 0 -59 -19 -59 -49 0 -39 22
-55 68 -49 37 5 38 5 34 -24 -8 -50 39 -85 157 -119 74 -21 137 -23 196 -5 31
9 44 20 58 49 21 45 32 46 52 7 13 -25 22 -30 51 -30 19 0 47 6 62 14 53 28
149 54 222 61 92 8 234 38 285 59 20 9 67 21 104 26 36 6 79 13 94 16 l28 6
-41 38 c-48 44 -53 85 -11 85 25 0 34 -11 51 -59 l10 -28 35 26 c22 17 60 31
107 40 40 8 122 28 182 45 75 21 132 31 180 31 108 0 179 15 274 59 111 50
176 69 284 81 146 17 163 31 108 93 -51 59 -39 87 45 102 22 4 46 12 53 17 9
8 24 8 51 -1 45 -13 140 -14 194 -2 21 5 71 34 111 65 90 69 112 71 181 16 44
-35 56 -40 103 -40 99 0 111 24 63 126 -16 34 -34 88 -41 120 -6 33 -16 82
-22 109 -19 95 -60 220 -89 272 -16 29 -29 65 -29 79 0 15 -8 41 -19 58 -21
35 -61 171 -85 291 -15 76 -24 115 -62 265 -9 36 -25 83 -35 105 -11 22 -19
58 -19 80 0 22 -11 81 -25 130 -14 50 -32 145 -40 211 -9 67 -24 148 -35 180
l-20 58 21 31 c29 42 116 105 145 105 13 0 35 -5 50 -12 24 -11 29 -10 55 20
35 39 36 55 7 82 -25 23 -48 26 -66 8 -9 -9 -15 -9 -23 -1 -16 16 23 98 67
138 38 36 41 65 6 65 -48 0 -52 61 -6 82 19 9 28 8 42 -5 10 -10 21 -17 25
-17 3 0 19 24 36 53 17 29 40 62 51 72 11 10 20 24 20 31 0 8 14 20 30 29 35
18 38 35 11 59 -27 25 -34 65 -19 111 15 45 33 55 43 25 10 -31 27 -20 52 32
12 25 39 63 60 84 l37 39 -3 80 -3 80 49 51 c70 75 123 140 140 175 18 37 40
184 49 337 7 108 6 114 -15 128 -28 20 -27 32 4 46 20 9 25 19 25 46 0 21 -7
40 -16 47 -15 11 -15 14 0 43 9 17 16 51 16 76 0 36 -5 48 -27 65 -23 19 -25
24 -15 47 20 42 25 128 13 182 -11 44 -10 54 7 89 l20 38 -31 35 -31 35 27 3
c38 5 42 22 17 73 -18 34 -20 47 -11 61 16 26 14 35 -14 72 -15 19 -31 62 -40
107 -9 41 -27 90 -41 110 -13 19 -33 66 -43 102 -22 81 -42 111 -161 247 -50
58 -103 125 -117 150 -15 25 -39 60 -55 78 -15 18 -28 36 -28 41 0 5 -18 20
-40 35 -24 16 -40 34 -40 46 0 31 -44 54 -88 46 -36 -5 -39 -4 -53 27 -16 38
-43 46 -70 21 -18 -16 -22 -15 -97 14 -43 17 -118 41 -167 53 -50 12 -120 37
-156 55 -38 20 -80 34 -101 34 -19 0 -60 11 -89 24 -74 32 -110 39 -145 26
-36 -14 -91 1 -150 43 l-42 29 -88 -18 c-55 -11 -139 -18 -220 -18 -127 -1
-132 0 -170 27 -44 30 -79 34 -108 12z m45 -161 c21 -26 -1 -49 -47 -49 -30 0
-40 4 -42 19 -8 39 62 62 89 30z m-362 -90 c42 -54 16 -80 -53 -54 -31 12 -33
29 -6 58 27 28 34 28 59 -4z m635 -33 c8 -13 -16 -31 -123 -87 -99 -53 -119
-76 -85 -101 12 -9 34 -11 71 -7 l53 7 0 -31 c0 -17 5 -34 11 -37 30 -19 239
115 239 153 0 7 -13 21 -30 30 -37 21 -34 32 12 48 l37 12 35 -45 c20 -26 36
-52 36 -59 0 -23 53 -77 95 -95 61 -28 105 -25 151 12 48 39 111 68 145 69 15
0 43 7 62 15 68 28 167 11 167 -29 0 -6 -18 -49 -40 -95 -22 -45 -40 -90 -40
-99 0 -25 76 -137 105 -156 19 -13 43 -16 93 -14 81 4 83 11 22 92 l-44 58 13
60 c25 122 43 132 138 78 56 -32 83 -63 83 -95 0 -39 21 -95 47 -126 l26 -31
-28 -22 c-22 -17 -27 -28 -22 -47 9 -34 113 -158 143 -169 28 -11 32 -35 7
-48 -10 -5 -41 -15 -70 -22 -29 -6 -56 -17 -62 -23 -29 -36 -45 -203 -22 -231
8 -9 25 -16 40 -16 35 0 88 -33 96 -61 4 -12 1 -40 -6 -61 -12 -38 -11 -43 17
-92 28 -49 29 -55 28 -176 -1 -111 -5 -141 -37 -262 -20 -75 -51 -174 -68
-220 -60 -159 -68 -183 -79 -268 -6 -47 -22 -129 -36 -183 -14 -54 -22 -107
-19 -117 5 -16 23 -26 78 -44 30 -9 22 -57 -15 -88 l-33 -26 33 -19 c37 -21
39 -34 12 -73 -19 -27 -19 -27 0 -45 11 -10 20 -25 20 -33 0 -18 -119 -247
-184 -354 -42 -68 -116 -148 -137 -148 -13 0 -39 -99 -39 -145 0 -55 14 -72
80 -92 69 -23 74 -42 25 -90 -37 -36 -85 -123 -85 -155 0 -9 7 -43 15 -75 8
-31 15 -72 15 -90 0 -18 14 -67 31 -110 20 -50 34 -109 40 -163 5 -47 15 -112
24 -145 8 -33 19 -145 25 -250 9 -148 16 -200 31 -234 19 -44 26 -116 11 -125
-5 -3 -81 -12 -170 -21 -89 -9 -186 -23 -215 -31 -28 -8 -72 -19 -97 -24 -25
-5 -65 -16 -89 -24 -24 -9 -55 -16 -70 -16 -15 0 -44 -9 -66 -20 -22 -11 -47
-20 -56 -20 -49 0 -295 -66 -416 -111 -76 -29 -182 -67 -236 -85 -106 -36
-274 -113 -365 -167 -40 -24 -75 -36 -116 -41 -64 -7 -131 -33 -173 -66 -14
-11 -36 -20 -49 -20 -12 0 -25 -4 -28 -9 -3 -4 -24 -11 -46 -15 -22 -3 -54
-13 -72 -21 -18 -7 -50 -17 -72 -20 -30 -5 -50 -19 -95 -66 -31 -33 -71 -67
-90 -75 -29 -12 -32 -16 -20 -30 11 -13 27 -15 89 -10 41 3 89 8 106 12 24 4
33 2 38 -11 3 -10 13 -101 21 -204 9 -102 18 -201 21 -218 5 -26 3 -34 -12
-38 -11 -4 -37 -15 -59 -26 -22 -10 -48 -19 -57 -19 -22 0 -69 47 -139 140
-56 74 -56 76 -68 174 -6 54 -14 103 -17 107 -3 5 -15 9 -28 9 -12 0 -31 7
-42 14 -19 15 -18 16 8 42 l27 28 -32 37 c-68 81 -77 96 -71 126 4 24 0 31
-25 45 -37 20 -40 47 -8 75 38 35 66 46 83 32 22 -18 27 -6 33 76 4 41 11 79
17 85 10 10 49 -56 74 -127 15 -40 112 -133 139 -133 29 0 55 43 46 77 -3 16
-29 79 -56 141 -52 117 -55 145 -13 117 22 -14 24 -14 39 14 8 17 15 39 15 51
0 30 -27 91 -53 118 -19 20 -22 35 -22 102 0 62 -4 83 -17 97 -25 25 -33 9
-18 -36 12 -36 11 -42 -9 -70 -12 -17 -26 -31 -30 -31 -5 0 -11 30 -15 68 -4
37 -12 95 -18 129 -11 60 -10 62 15 93 15 17 30 43 34 58 8 35 -14 170 -33
200 -13 20 -21 23 -54 17 -35 -6 -40 -4 -57 21 -15 23 -18 49 -18 142 -1 108
-2 116 -25 134 -13 11 -30 16 -39 12 -34 -14 -46 -7 -88 49 -35 44 -50 57 -71
57 -38 0 -70 25 -74 58 -3 23 -8 28 -43 32 -23 3 -57 16 -78 28 -29 19 -42 22
-69 14 -46 -12 -75 -2 -197 68 -115 66 -180 114 -169 125 11 11 82 8 126 -6
22 -6 48 -9 56 -6 23 9 20 60 -5 83 -12 10 -25 29 -30 42 -5 13 -23 31 -40 40
-17 9 -57 38 -88 64 -58 50 -158 108 -184 108 -43 0 -15 -90 44 -141 30 -26
41 -43 41 -63 1 -45 -21 -49 -82 -14 -144 80 -262 181 -335 286 -25 37 -66 95
-91 130 -30 43 -53 92 -71 154 -22 71 -32 92 -50 99 -29 11 -30 37 0 49 12 5
57 12 101 15 l79 7 -7 81 c-5 57 -14 96 -30 127 -30 57 -54 170 -68 323 -13
134 -13 134 64 172 57 27 69 53 67 153 l-2 83 32 20 c34 21 37 30 19 58 -9 15
-9 25 0 46 17 37 15 75 -9 168 -20 81 -21 98 -3 245 8 68 -1 102 -26 102 -10
0 -22 -5 -26 -11 -3 -6 -15 -8 -26 -5 -43 11 -98 -77 -98 -156 0 -36 -9 -35
-49 6 l-33 34 45 78 c25 44 51 104 57 134 9 36 28 75 56 114 25 32 47 70 50
85 3 14 14 50 25 79 23 65 24 95 4 112 -22 18 -19 36 19 98 19 32 38 70 42 85
8 34 29 45 55 29 27 -17 47 -15 53 6 3 9 27 25 53 34 27 10 79 38 117 63 38
25 74 45 80 45 6 0 33 11 59 25 47 26 71 25 65 0 -2 -8 -27 -31 -57 -52 -64
-45 -72 -59 -37 -73 15 -5 26 -17 26 -28 0 -27 -47 -88 -122 -158 -70 -65
-122 -94 -139 -77 -13 13 13 68 35 76 8 3 29 25 46 48 49 68 35 128 -24 101
-15 -7 -29 -28 -41 -64 -9 -29 -30 -82 -46 -117 -34 -75 -35 -88 -9 -121 26
-33 25 -58 -2 -87 -26 -28 -49 -29 -73 -3 -45 50 -65 -67 -22 -131 24 -35 109
-99 133 -99 25 0 52 37 59 81 5 30 26 69 67 126 72 98 93 110 111 61 12 -33
33 -18 50 35 9 30 17 70 17 89 0 31 5 39 35 57 24 14 35 28 35 44 0 13 9 32
19 41 11 10 23 31 26 46 3 15 15 36 27 46 11 11 37 48 58 84 43 74 66 93 167
140 40 18 79 41 88 50 17 19 15 23 -29 54 -23 16 -17 39 18 61 29 19 106 32
106 19 0 -5 -11 -26 -25 -46 -43 -63 -37 -72 48 -65 56 5 90 16 152 47 44 22
88 40 98 40 23 0 114 46 150 76 60 50 75 17 30 -66 -26 -46 -27 -50 -11 -66
11 -11 39 -19 74 -22 55 -5 58 -3 84 28 23 29 29 31 47 20 29 -19 65 -6 127
44 58 48 142 96 167 96 16 0 294 96 361 124 22 9 39 12 43 6 3 -5 3 -38 -1
-74 -6 -58 -5 -65 14 -75 32 -17 92 -13 152 12 80 33 199 113 210 141 5 13 17
26 27 29 33 8 122 7 127 -2z m386 -56 c15 -18 -2 -45 -29 -45 -9 0 -25 -7 -35
-15 -27 -20 -36 -19 -36 5 0 26 43 70 68 70 11 0 25 -7 32 -15z m-1632 -93 c5
-34 -16 -62 -45 -62 -45 0 -90 59 -45 60 9 1 28 7 42 15 31 18 44 14 48 -13z
m-873 -192 c8 -13 -103 -123 -146 -145 -68 -36 -81 15 -17 69 37 32 130 85
150 86 4 0 10 -5 13 -10z m3636 -182 c48 -43 70 -72 109 -150 72 -143 93 -279
44 -286 -22 -3 -84 57 -84 81 0 7 -11 28 -24 46 -23 31 -24 35 -10 74 18 50
13 68 -26 90 -31 19 -60 63 -60 92 0 9 -9 28 -20 43 -20 27 -19 62 2 62 5 0
36 -24 69 -52z m263 -240 c7 -13 21 -47 31 -76 9 -29 28 -66 41 -81 29 -35 31
-61 5 -61 -27 0 -68 53 -81 103 -6 23 -18 56 -27 73 -26 51 1 88 31 42z m-435
-205 c10 -21 9 -29 -3 -41 -19 -20 -44 -9 -52 23 -7 28 10 57 30 49 7 -3 19
-17 25 -31z m-4421 -45 c4 -33 -20 -82 -60 -125 -20 -20 -28 -38 -24 -48 3 -9
1 -26 -6 -38 -16 -31 -107 -292 -121 -349 -7 -26 -18 -53 -25 -60 -20 -20 -13
-42 21 -63 l32 -21 -1 -147 c0 -126 -3 -150 -18 -165 -16 -16 -18 -16 -37 11
-26 35 -64 35 -113 2 -44 -30 -43 -30 -55 -6 -7 13 -6 37 6 81 12 50 14 75 6
119 l-10 56 38 44 c35 39 39 50 39 96 0 37 6 60 20 78 27 34 26 38 -15 87 -19
23 -35 44 -35 46 0 2 23 27 50 55 47 48 52 51 76 41 37 -18 41 -16 54 26 7 20
16 41 21 47 14 15 10 29 -5 16 -10 -9 -16 -8 -26 4 -30 37 28 152 109 213 50
38 75 38 79 0z m4882 -213 c23 -46 25 -61 24 -170 -2 -176 -79 -719 -123 -860
-17 -53 -23 -62 -57 -77 -26 -12 -65 -18 -116 -18 -68 0 -79 2 -92 22 -9 12
-16 30 -16 40 0 14 6 16 29 12 22 -5 32 -1 45 17 24 35 20 56 -25 146 -45 91
-47 119 -9 181 20 33 47 41 68 20 18 -18 14 -38 -8 -38 -27 0 -25 -14 5 -34
14 -9 25 -23 25 -31 0 -28 18 -15 31 22 8 25 10 77 6 162 -5 125 -5 127 31
234 35 105 37 108 63 102 23 -5 27 -2 32 22 2 15 15 56 28 90 23 61 23 62 4
83 -23 25 -26 89 -6 114 20 24 33 16 61 -39z m-4776 -507 c21 -30 20 -61 -4
-108 -11 -22 -25 -77 -31 -123 -14 -103 -23 -127 -48 -127 -18 0 -81 61 -81
79 0 5 11 16 25 25 16 10 26 29 30 53 4 21 13 56 21 78 8 23 14 57 14 77 0 20
3 43 6 52 9 23 50 19 68 -6z m4486 -46 c0 -5 -22 -28 -50 -51 -48 -40 -50 -41
-39 -14 14 38 48 73 71 73 10 0 18 -4 18 -8z m-4645 -127 c0 -47 -24 -56 -39
-14 -12 34 -1 61 21 57 14 -2 18 -13 18 -43z m4543 -251 c3 -64 -10 -90 -41
-78 -20 7 -30 35 -17 48 5 5 10 26 10 46 0 41 7 52 30 48 11 -2 16 -19 18 -64z
m-4819 -37 c29 -59 27 -98 -5 -131 -15 -14 -35 -26 -45 -26 -23 0 -24 13 -4
30 21 18 19 36 -7 55 -18 12 -23 25 -23 59 0 86 45 93 84 13z m4770 -156 c36
-45 38 -61 11 -86 -11 -10 -20 -26 -20 -37 0 -22 -18 -23 -48 -2 -18 12 -22
25 -22 64 0 58 14 100 34 100 8 0 28 -18 45 -39z m-4875 11 c4 -10 22 -26 41
-35 49 -23 49 -57 0 -57 -52 0 -95 25 -95 54 0 37 10 56 30 56 10 0 21 -8 24
-18z m5373 -139 c4 -9 1 -19 -6 -21 -6 -2 -25 -15 -42 -30 -25 -21 -32 -23
-40 -11 -13 21 -11 28 16 54 28 29 63 33 72 8z m-5302 -63 c0 -54 -24 -66 -51
-25 -22 34 -6 78 29 73 19 -3 22 -9 22 -48z m192 -150 c44 -51 71 -180 38
-180 -8 0 -37 20 -65 45 -28 25 -61 45 -73 45 -13 0 -32 6 -42 14 -19 13 -18
16 22 55 47 47 91 55 120 21z m-52 -250 c26 -50 17 -110 -16 -110 -14 0 -22
14 -35 56 -8 30 -13 62 -10 70 9 25 44 16 61 -16z m4617 -97 c39 -38 49 -63
24 -63 -20 0 -86 64 -86 84 0 26 21 19 62 -21z m-4547 -143 c30 -33 14 -45
-58 -45 -58 -1 -67 2 -67 18 0 10 11 29 24 42 21 21 28 23 54 14 17 -6 38 -19
47 -29z m4474 9 c41 -14 44 -49 3 -49 -40 0 -77 28 -61 46 14 17 17 17 58 3z
m-2937 -1745 c8 -51 2 -104 -11 -104 -23 0 -44 134 -24 154 15 15 28 -3 35
-50z m68 -208 c0 -7 -9 -25 -20 -39 -11 -14 -20 -30 -20 -36 0 -15 -39 -34
-56 -27 -25 10 -15 38 26 78 42 39 70 49 70 24z m2955 -31 c0 -36 -3 -40 -25
-40 -29 0 -38 31 -20 65 19 35 45 21 45 -25z m-621 -121 c53 -43 59 -45 88
-35 82 29 137 6 185 -77 14 -26 48 -69 74 -97 26 -27 51 -63 55 -80 9 -41 39
-98 59 -115 13 -10 20 -11 39 -1 33 18 60 10 64 -17 8 -56 -34 -73 -277 -112
-142 -23 -195 -28 -210 -21 -28 15 -51 14 -51 -4 0 -32 -92 -60 -326 -99 -171
-28 -198 -37 -214 -66 -9 -16 -15 -18 -30 -10 -33 18 -49 62 -70 197 -36 223
-72 341 -123 407 -29 37 -29 39 -12 52 10 8 34 14 53 14 43 0 71 15 82 46 14
35 36 30 53 -13 24 -60 46 -74 134 -84 82 -9 168 -45 168 -69 0 -8 -13 -18
-30 -23 -89 -26 -106 -51 -93 -135 14 -89 50 -195 76 -221 21 -21 30 -23 92
-19 73 6 133 30 189 76 l33 28 -50 100 c-27 54 -53 110 -56 124 -4 14 -33 75
-64 136 -49 96 -55 114 -43 128 7 9 25 16 40 16 14 0 33 5 41 10 32 21 68 10
124 -36z m-2314 -133 c13 -25 13 -43 0 -77 -8 -19 -14 -24 -21 -17 -14 14 -31
91 -24 104 10 15 34 10 45 -10z m1480 -64 c0 -12 10 -50 22 -83 l22 -62 -42
-56 -43 -56 42 -81 c34 -65 49 -84 76 -96 41 -17 68 -71 59 -117 -7 -32 -42
-76 -61 -76 -6 0 -45 -22 -87 -50 -76 -50 -76 -50 -160 -50 -80 0 -86 -1 -112
-29 -15 -16 -43 -32 -61 -35 -35 -7 -71 -39 -61 -55 10 -15 -10 -22 -36 -12
-15 5 -41 4 -73 -5 -55 -14 -95 -18 -95 -8 0 4 16 26 35 50 19 23 35 46 35 50
0 4 -44 3 -97 -1 -183 -16 -194 -15 -216 23 -17 29 -18 37 -7 58 10 18 11 30
2 49 -17 37 -15 62 7 84 11 11 25 38 31 61 10 36 9 46 -10 77 -18 31 -20 40
-9 65 20 48 111 95 215 112 35 6 45 4 73 -20 32 -26 32 -27 25 -95 -6 -67 -6
-69 18 -78 38 -14 66 -56 78 -119 6 -31 16 -67 22 -80 7 -12 12 -37 12 -54 1
-48 20 -44 62 13 83 111 85 117 59 203 -8 27 -15 82 -15 122 0 68 2 75 35 114
28 34 35 50 35 86 0 68 22 102 74 115 24 6 63 24 86 39 47 31 60 31 60 -3z
m-800 -855 c18 11 50 5 50 -9 -1 -4 -15 -17 -33 -28 -26 -17 -32 -27 -31 -55
1 -19 7 -49 14 -67 12 -28 12 -34 -4 -52 -26 -29 -74 -47 -89 -32 -8 8 -8 19
2 44 24 59 25 77 2 107 -27 38 -27 55 4 86 23 23 27 24 46 10 16 -11 26 -12
39 -4z"/>
<path d="M5696 11941 c-12 -13 -15 -27 -11 -40 7 -24 40 -45 55 -36 14 9 12
69 -2 83 -16 16 -22 15 -42 -7z"/>
<path d="M3253 11917 c-36 -27 -73 -70 -73 -85 0 -16 38 -25 73 -18 52 11 70
30 71 78 1 36 -2 43 -19 46 -11 1 -35 -8 -52 -21z"/>
<path d="M5792 11876 c-26 -55 -28 -91 -6 -100 29 -11 61 -6 84 12 27 22 23
42 -23 95 l-32 39 -23 -46z"/>
<path d="M3777 11742 c-24 -26 -21 -49 8 -77 31 -32 50 -32 71 0 20 31 11 61
-26 80 -36 19 -34 19 -53 -3z"/>
<path d="M4618 11676 c-15 -19 -35 -50 -45 -70 -16 -35 -16 -36 6 -60 32 -34
80 -44 98 -20 23 31 6 171 -22 181 -6 2 -22 -12 -37 -31z"/>
<path d="M2890 11532 c-37 -12 -50 -35 -50 -90 l0 -55 26 24 c59 54 75 138 24
121z"/>
<path d="M5246 11475 c-20 -14 -51 -25 -68 -25 -20 0 -55 -15 -95 -41 -59 -39
-64 -45 -78 -98 -31 -110 -116 -257 -192 -327 l-55 -52 7 -61 c8 -68 -2 -89
-57 -117 -35 -18 -52 -72 -44 -142 6 -47 3 -60 -19 -98 -19 -31 -25 -57 -25
-98 0 -45 -11 -82 -60 -199 -82 -198 -82 -199 -28 -228 34 -19 50 -37 75 -88
58 -116 90 -131 193 -92 100 38 387 316 497 482 l26 40 -26 52 c-37 72 -36 78
16 71 48 -7 41 -14 114 111 51 88 123 268 123 306 0 13 7 63 16 110 22 119 18
130 -88 288 -10 14 -18 44 -18 65 0 63 -34 121 -84 145 -56 27 -85 26 -130 -4z
m5 -225 c23 -13 25 -53 3 -71 -14 -11 -19 -10 -35 10 -28 34 -24 62 9 70 2 1
12 -4 23 -9z m-139 -307 c36 -32 17 -83 -32 -83 -33 0 -50 17 -50 50 0 48 45
67 82 33z m216 -99 c2 -15 -14 -84 -35 -151 l-38 -123 -33 0 c-24 0 -41 -8
-62 -32 -24 -26 -31 -29 -44 -18 -25 20 -19 62 16 116 17 27 53 86 80 131 66
112 109 141 116 77z m-298 -62 c-1 -23 -52 -115 -67 -119 -18 -6 -26 34 -13
72 19 57 80 93 80 47z m12 -284 c20 -31 -18 -95 -73 -124 -15 -7 -30 -25 -33
-39 -4 -16 -13 -25 -26 -25 -22 0 -34 43 -28 101 3 31 6 34 31 32 26 -2 28 0
23 23 -10 39 10 57 58 51 21 -3 43 -11 48 -19z m-273 -302 c7 -8 31 -17 54
-21 74 -12 127 -27 127 -37 0 -5 -21 -31 -46 -58 -93 -100 -154 -115 -187 -48
-19 38 -25 117 -13 156 8 25 47 30 65 8z"/>
<path d="M2559 11413 c-5 -15 -9 -41 -7 -57 3 -27 7 -31 33 -31 29 0 30 2 33
49 2 32 -1 52 -10 57 -23 15 -38 10 -49 -18z"/>
<path d="M4067 11354 c-13 -13 -7 -61 8 -74 23 -19 47 6 43 44 -2 22 -9 32
-23 34 -12 2 -24 0 -28 -4z"/>
<path d="M3464 11222 c-16 -9 -50 -31 -75 -48 -24 -16 -70 -43 -102 -58 -48
-23 -73 -46 -151 -139 -51 -62 -126 -148 -167 -193 -62 -67 -82 -99 -123 -190
-60 -136 -74 -212 -58 -328 14 -111 33 -153 69 -162 84 -19 107 -28 166 -69
36 -24 85 -53 109 -64 23 -10 59 -26 78 -34 19 -8 62 -39 95 -67 83 -72 114
-90 158 -90 64 0 107 32 170 125 15 22 70 87 122 145 107 117 155 189 180 270
10 30 28 78 40 106 13 27 33 86 45 130 12 43 40 113 61 154 71 140 73 215 8
256 -34 21 -39 29 -39 62 0 20 -9 57 -20 81 -11 24 -20 52 -20 63 0 45 -40 78
-54 43 -7 -20 -22 -19 -56 5 -25 18 -34 19 -81 10 -30 -6 -69 -15 -87 -21 -26
-9 -43 -7 -92 10 -72 25 -134 26 -176 3z m430 -133 c15 -13 -30 -55 -107 -102
-38 -23 -85 -52 -105 -65 -38 -23 -92 -26 -99 -5 -6 16 61 88 116 125 83 58
163 77 195 47z m-448 -163 c7 -18 -20 -81 -52 -123 -20 -26 -32 -33 -60 -33
-63 0 -58 61 12 127 45 44 89 57 100 29z m310 -43 c10 -51 22 -71 53 -89 40
-24 45 -41 21 -71 -11 -14 -20 -40 -20 -57 0 -36 -9 -51 -74 -120 -25 -27 -46
-54 -46 -61 0 -7 -7 -18 -16 -26 -8 -7 -24 -30 -35 -51 -30 -59 -86 -115 -152
-154 -95 -56 -109 -33 -56 89 21 46 35 100 41 151 8 73 7 80 -12 93 -19 13
-19 16 -5 36 13 18 25 22 70 22 51 0 55 -2 65 -28 11 -34 25 -29 34 14 3 17
15 44 27 60 16 23 37 110 39 160 0 11 41 59 51 59 5 0 11 -12 15 -27z m-516
-8 c11 -13 8 -23 -16 -58 -51 -72 -123 -77 -94 -7 30 72 80 102 110 65z m-121
-259 c10 -12 5 -29 -24 -85 -28 -53 -42 -98 -54 -174 -10 -57 -21 -109 -25
-115 -11 -18 -92 -15 -110 4 -19 18 -21 84 -5 169 22 122 95 215 168 215 21 0
44 -6 50 -14z m264 -91 c3 -8 -7 -39 -23 -69 -25 -47 -30 -68 -31 -133 -1 -97
-9 -127 -35 -131 -20 -3 -114 63 -114 80 0 6 12 24 27 42 31 37 73 123 73 150
0 47 89 100 103 61z m116 -553 c21 -40 -43 -71 -89 -42 -12 7 -11 13 10 34 27
30 65 34 79 8z"/>
<path d="M3920 9831 c0 -10 6 -24 14 -30 18 -15 108 -10 113 5 8 24 -28 44
-78 44 -41 0 -49 -3 -49 -19z"/>
<path d="M5830 9801 l-35 -29 15 -43 c11 -31 21 -45 36 -47 19 -3 24 4 34 47
7 28 15 51 18 51 3 0 14 -7 24 -16 16 -16 18 -15 24 1 5 13 -1 25 -20 42 -35
30 -54 29 -96 -6z"/>
<path d="M3104 9795 c-18 -46 53 -69 131 -43 74 25 54 42 -65 55 -51 5 -60 3
-66 -12z"/>
<path d="M5560 9723 c-17 -21 -20 -35 -15 -65 6 -35 4 -42 -28 -71 -44 -40
-57 -73 -57 -141 0 -93 11 -146 29 -146 34 0 92 83 127 183 11 32 12 47 2 79
-9 31 -9 44 0 59 16 24 15 102 0 117 -19 19 -35 14 -58 -15z"/>
<path d="M5327 9682 c-23 -25 -21 -41 6 -53 29 -13 105 5 114 27 16 41 -86 64
-120 26z"/>
<path d="M2590 9635 c-7 -9 -13 -32 -14 -53 -1 -35 1 -37 31 -40 24 -2 39 3
58 22 30 30 31 40 5 66 -24 24 -63 26 -80 5z"/>
<path d="M5093 9575 c-3 -9 -3 -29 1 -45 5 -26 1 -32 -24 -45 -61 -31 -15 -97
52 -76 18 6 46 13 61 16 36 7 44 29 25 69 -37 76 -99 121 -115 81z"/>
<path d="M2465 9556 c-16 -12 -18 -19 -10 -43 18 -49 85 -40 85 11 0 43 -39
59 -75 32z"/>
<path d="M5778 9505 c-14 -32 5 -57 41 -53 22 3 26 9 29 41 3 35 2 37 -28 37
-23 0 -33 -6 -42 -25z"/>
<path d="M3984 9501 c-31 -19 -31 -19 -102 -217 -16 -45 -33 -87 -37 -95 -5
-7 -12 -37 -16 -66 -4 -29 -17 -67 -30 -84 -15 -21 -19 -36 -13 -44 52 -70 50
-51 26 -238 -30 -236 -30 -239 16 -277 48 -39 74 -46 124 -29 40 13 41 13 70
-21 69 -81 85 -94 136 -117 52 -24 53 -24 84 -6 18 10 41 34 52 52 19 32 19
33 -2 70 -12 21 -32 78 -45 127 -14 50 -34 108 -45 131 -20 39 -21 47 -10 160
6 67 8 200 5 308 -7 254 -26 318 -104 351 -44 19 -72 17 -109 -5z m126 -673
c36 -79 18 -138 -52 -174 -51 -26 -59 -14 -37 56 10 34 19 74 19 89 0 28 25
71 41 71 6 0 19 -19 29 -42z"/>
<path d="M4492 9451 c-28 -10 -61 -26 -71 -35 -27 -24 -36 -119 -21 -224 8
-63 8 -92 0 -118 -11 -33 -10 -38 20 -75 30 -38 31 -41 15 -59 -22 -24 -30
-91 -15 -119 6 -13 14 -57 17 -99 4 -46 14 -91 24 -112 11 -19 19 -47 19 -63
0 -49 36 -73 123 -81 66 -7 82 -12 122 -43 51 -41 86 -46 128 -18 49 32 48 84
-2 151 -100 131 -95 122 -83 149 10 21 9 32 -3 55 -8 16 -15 40 -15 54 0 14
-9 53 -21 87 -15 43 -19 72 -15 102 5 30 1 60 -14 102 -13 38 -24 106 -30 186
-5 69 -14 137 -19 152 -9 24 -15 27 -58 27 -27 -1 -72 -9 -101 -19z"/>
<path d="M2750 9390 c-6 -12 -10 -33 -8 -48 3 -25 6 -27 61 -30 51 -3 57 -1
57 17 0 20 -65 81 -87 81 -7 0 -17 -9 -23 -20z"/>
<path d="M5484 8996 c-10 -25 5 -83 22 -90 23 -9 74 25 81 52 7 31 -3 40 -54
48 -34 5 -44 3 -49 -10z"/>
<path d="M5103 8855 c-30 -21 -46 -70 -28 -85 31 -26 95 23 95 72 0 22 -4 28
-23 28 -12 0 -32 -7 -44 -15z"/>
<path d="M5378 8639 c-53 -30 -37 -99 23 -99 46 0 69 16 69 50 0 50 -47 76
-92 49z"/>
<path d="M4338 8629 c-22 -12 -23 -48 -3 -55 19 -8 65 21 65 40 0 8 -7 17 -16
20 -21 8 -26 7 -46 -5z"/>
<path d="M5435 8350 c-22 -24 -13 -65 18 -84 15 -9 22 -7 34 12 9 12 24 22 34
22 41 0 30 43 -14 53 -12 2 -29 7 -38 11 -9 4 -23 -1 -34 -14z"/>
<path d="M5352 8308 c-16 -16 -15 -39 3 -65 19 -27 41 -21 50 14 12 51 -21 83
-53 51z"/>
<path d="M5817 8250 c-4 -34 -11 -70 -17 -80 -8 -15 -5 -35 11 -82 22 -67 20
-121 -6 -186 -13 -30 -12 -34 11 -59 17 -19 23 -34 20 -49 -7 -25 16 -54 40
-54 32 0 75 32 92 68 14 31 24 39 62 48 40 9 45 14 48 42 2 17 -1 40 -7 51 -6
10 -18 63 -26 116 -17 103 -38 156 -77 191 -34 31 -83 54 -116 54 -28 0 -29
-2 -35 -60z"/>
<path d="M5286 7865 c-28 -26 -35 -70 -16 -106 15 -27 37 -24 71 10 36 36 41
94 10 111 -28 14 -35 13 -65 -15z"/>
<path d="M5024 7805 c-13 -34 57 -95 93 -81 22 9 14 33 -22 65 -39 34 -62 39
-71 16z"/>
<path d="M5404 7795 c-15 -37 17 -56 140 -85 58 -13 69 -6 64 41 l-3 34 -75 6
c-41 3 -85 10 -97 14 -17 5 -24 3 -29 -10z"/>
<path d="M4956 7778 c-20 -28 -21 -82 -2 -97 21 -17 56 20 56 58 0 62 -26 80
-54 39z"/>
<path d="M4727 7753 c-4 -3 -7 -18 -7 -32 0 -38 -34 -87 -79 -115 -51 -33 -52
-35 -36 -82 8 -21 14 -55 15 -75 0 -37 21 -66 39 -55 11 7 31 94 31 136 0 24
8 35 40 55 38 24 40 28 40 74 0 73 -20 117 -43 94z"/>
<path d="M4599 7733 c-50 -31 -77 -107 -44 -119 18 -7 78 36 102 73 12 18 14
29 6 42 -14 22 -33 24 -64 4z"/>
<path d="M4440 7711 c0 -10 -9 -30 -20 -44 l-21 -26 -45 24 c-58 31 -97 17
-130 -47 -16 -31 -38 -35 -80 -16 -23 11 -28 10 -45 -11 -24 -30 -24 -73 0
-95 21 -19 30 -16 114 32 52 31 60 33 92 22 28 -9 41 -8 70 6 29 14 40 14 64
4 17 -6 35 -9 40 -5 16 9 13 100 -3 140 -16 38 -36 47 -36 16z"/>
<path d="M1136 10457 c-7 -42 -1 -77 13 -77 22 0 51 34 51 60 0 18 -8 34 -22
44 -32 23 -35 21 -42 -27z"/>
<path d="M900 9980 c0 -5 9 -10 20 -10 11 0 20 5 20 10 0 6 -9 10 -20 10 -11
0 -20 -4 -20 -10z"/>
<path d="M9585 8346 c-27 -8 -75 -26 -105 -40 -69 -32 -88 -32 -131 -1 -57 42
-79 50 -97 38 -27 -16 -20 -36 22 -59 38 -22 38 -22 19 -41 -28 -28 -191 -140
-310 -212 -56 -34 -105 -71 -108 -81 -10 -31 -92 -138 -115 -150 -18 -10 -26
-8 -43 8 -29 27 -67 35 -100 23 -47 -18 -34 -48 27 -60 65 -14 70 -103 10
-178 -53 -65 -132 -286 -144 -401 -6 -52 -13 -118 -16 -148 -7 -53 -6 -56 38
-112 25 -31 50 -67 56 -79 13 -24 38 -165 47 -269 l6 -72 -150 -106 c-169
-121 -219 -150 -284 -170 -25 -7 -51 -19 -59 -25 -87 -74 -428 -269 -561 -320
-46 -18 -108 -51 -138 -74 -30 -22 -104 -67 -166 -99 -62 -31 -133 -73 -158
-93 -26 -19 -53 -35 -61 -35 -25 0 -162 -67 -226 -111 -63 -43 -125 -69 -163
-69 -12 0 -42 -11 -66 -25 -107 -60 -219 -114 -284 -138 -83 -29 -139 -60
-180 -98 -16 -15 -50 -33 -75 -39 -25 -7 -91 -43 -147 -81 -57 -37 -122 -73
-145 -80 -24 -6 -50 -17 -58 -24 -8 -7 -31 -17 -51 -23 -20 -5 -72 -34 -115
-64 -44 -31 -100 -68 -127 -83 l-47 -27 -36 28 c-20 16 -44 35 -54 42 -10 7
-59 19 -109 27 -50 7 -105 21 -123 29 -17 9 -36 16 -42 16 -5 0 -44 26 -86 59
-89 68 -134 93 -215 116 -33 10 -80 28 -105 40 -25 13 -110 38 -190 57 -116
26 -154 40 -195 67 -27 19 -99 52 -159 73 -61 22 -142 59 -180 83 -76 47 -107
60 -291 125 -66 23 -162 62 -212 86 -94 44 -127 52 -138 34 -12 -19 -35 -10
-35 13 0 39 -28 66 -88 83 -31 9 -84 31 -117 49 -33 18 -71 36 -85 40 -14 4
-44 21 -67 36 -28 20 -54 29 -81 29 -23 0 -45 6 -52 15 -6 8 -21 17 -32 21
-12 3 -41 19 -65 34 -25 16 -77 38 -116 50 -40 12 -117 41 -172 65 -55 24
-138 56 -183 71 -69 23 -93 37 -145 85 -34 32 -65 59 -69 59 -5 0 -8 29 -8 64
0 64 -1 65 -62 144 -35 44 -83 107 -107 141 -24 34 -96 111 -159 173 l-115
111 -94 -6 c-109 -6 -147 -22 -242 -100 -139 -114 -146 -138 -137 -470 8 -264
7 -268 -70 -197 l-47 43 -109 -7 c-122 -7 -136 -12 -191 -65 -32 -30 -107
-162 -107 -188 0 -4 -14 -44 -31 -88 l-32 -80 12 -105 c14 -132 43 -255 77
-327 52 -109 215 -246 462 -388 98 -56 152 -67 185 -38 12 11 37 26 55 33 46
18 112 87 112 117 0 14 4 22 11 18 28 -18 62 11 164 140 69 87 113 135 125
135 14 0 23 -14 35 -55 16 -56 35 -75 77 -75 37 0 147 -38 202 -69 28 -16 83
-41 121 -57 39 -15 177 -80 308 -145 131 -65 270 -128 310 -140 51 -15 83 -32
112 -59 22 -20 99 -68 170 -105 72 -37 137 -74 145 -81 8 -7 38 -20 65 -29 28
-9 82 -37 122 -61 39 -24 102 -55 140 -68 182 -63 277 -107 384 -176 63 -40
169 -80 216 -80 29 0 83 -26 83 -41 0 -5 -14 -18 -31 -27 -17 -9 -93 -57 -168
-106 -75 -49 -190 -115 -257 -147 -67 -32 -145 -75 -175 -95 -29 -21 -82 -50
-118 -67 -37 -16 -102 -57 -146 -91 -96 -74 -262 -176 -326 -199 -49 -19 -191
-105 -265 -161 -25 -19 -74 -45 -110 -56 -46 -16 -83 -38 -126 -76 -34 -29
-82 -64 -107 -77 -26 -13 -113 -60 -196 -104 -82 -44 -160 -83 -171 -87 -12
-4 -29 -15 -39 -26 -21 -23 -37 -25 -65 -8 -24 15 -32 8 -39 -39 -6 -36 -9
-38 -46 -41 -52 -5 -174 14 -250 38 -90 29 -253 52 -415 58 -278 10 -305 6
-417 -64 -33 -22 -75 -47 -92 -56 -17 -10 -34 -25 -37 -35 -3 -10 -18 -45 -34
-78 -16 -33 -34 -86 -39 -119 -6 -32 -24 -82 -41 -111 -16 -29 -30 -58 -30
-65 0 -8 -7 -22 -16 -32 -10 -10 -21 -40 -25 -68 -4 -29 -20 -68 -37 -93 -40
-56 -46 -102 -28 -195 8 -42 20 -130 26 -194 12 -128 39 -239 68 -277 10 -13
44 -43 76 -65 57 -41 58 -41 146 -41 78 0 92 3 111 22 30 30 19 58 -19 48 -70
-18 -117 -17 -142 3 -20 17 -23 23 -13 33 15 15 98 27 191 28 48 1 81 9 132
31 54 24 74 28 93 21 14 -6 28 -15 32 -20 20 -33 80 14 92 71 5 25 10 28 43
28 21 0 54 7 75 16 45 18 91 11 106 -18 13 -24 9 -43 -25 -125 -26 -61 -26
-63 -15 -180 6 -66 19 -142 31 -173 11 -30 30 -93 44 -140 13 -47 32 -96 42
-110 35 -47 95 -81 153 -87 54 -5 54 -5 73 31 19 35 89 96 110 96 6 0 24 7 40
15 15 8 56 19 89 25 86 14 161 62 214 139 45 65 83 170 83 228 0 31 2 35 23
30 19 -5 25 1 43 46 82 198 91 277 32 277 -32 0 -32 28 1 65 40 46 47 77 31
138 -12 46 -11 51 6 64 10 7 43 13 74 13 51 0 58 3 68 25 8 16 17 23 27 19 9
-4 44 7 78 24 76 37 264 112 283 112 17 0 84 101 84 127 0 17 9 21 64 26 77 7
179 51 220 95 16 17 33 29 37 26 5 -3 6 21 3 54 -11 101 29 134 80 67 17 -21
36 -35 49 -35 13 0 50 24 86 56 84 73 126 99 202 124 35 12 75 32 91 45 41 35
227 131 278 145 60 16 190 99 201 128 5 13 9 38 9 57 0 19 4 36 9 39 10 7 21
-16 21 -44 0 -40 8 -38 170 37 119 55 206 103 344 190 38 24 79 43 91 43 12 0
44 12 70 26 27 14 76 32 109 41 80 20 98 30 184 102 96 80 107 86 134 66 47
-32 105 -5 79 37 -9 14 -9 24 -2 31 13 13 89 26 157 26 45 1 53 -2 72 -29 27
-35 86 -68 135 -73 19 -2 47 -14 62 -26 22 -16 41 -21 89 -21 75 0 101 -16
127 -79 20 -45 84 -121 102 -121 5 0 44 -16 87 -35 43 -19 88 -35 101 -35 13
0 38 -9 54 -20 59 -40 291 -148 340 -159 244 -54 253 -57 396 -151 50 -33 100
-60 110 -60 11 0 38 -9 60 -20 30 -16 44 -18 58 -10 52 27 116 -6 127 -67 5
-29 3 -39 -11 -50 -27 -19 -56 -16 -127 11 -35 13 -85 29 -113 35 -51 12 -158
57 -365 151 -63 29 -144 63 -180 75 -36 13 -99 39 -140 59 -41 20 -81 36 -89
36 -13 0 -176 75 -496 229 -188 91 -212 101 -237 101 -25 0 -113 40 -165 76
-34 22 -45 25 -98 20 -78 -7 -85 -7 -115 -4 -19 2 -26 -2 -28 -18 -7 -50 102
-124 187 -127 30 -2 57 -9 68 -19 10 -9 47 -30 83 -46 36 -17 90 -51 120 -76
64 -54 113 -72 230 -86 62 -8 96 -18 124 -36 26 -18 46 -24 63 -19 18 4 33 -1
56 -20 85 -69 139 -101 229 -137 53 -21 102 -38 109 -38 7 0 32 -12 56 -26 24
-14 56 -24 71 -23 33 3 98 -24 132 -56 47 -43 215 -135 248 -135 20 0 43 -10
64 -28 18 -16 56 -34 83 -41 28 -7 66 -23 86 -36 21 -13 61 -31 90 -40 30 -9
88 -27 129 -41 41 -13 92 -24 112 -24 21 0 40 -6 45 -14 5 -8 31 -15 65 -18
41 -3 71 -14 112 -38 52 -32 56 -37 56 -72 0 -50 40 -95 119 -133 34 -16 61
-32 61 -37 0 -4 -15 -27 -33 -50 -45 -59 -86 -156 -98 -229 -5 -34 -16 -74
-24 -90 -19 -36 -19 -63 1 -101 9 -17 20 -58 24 -91 11 -72 44 -143 108 -228
27 -35 64 -90 83 -122 29 -50 40 -60 77 -70 34 -9 48 -20 67 -54 36 -60 114
-137 166 -162 24 -12 77 -41 117 -65 83 -50 170 -80 292 -101 130 -23 175 -20
217 13 19 15 70 45 112 68 88 46 128 93 191 219 38 77 40 85 50 227 12 170 8
187 -74 318 -25 41 -46 85 -46 98 0 12 12 35 28 49 26 25 30 25 121 19 l93 -7
85 41 c47 22 106 45 131 50 78 17 100 30 126 74 14 24 54 68 89 99 53 47 68
66 87 119 12 35 41 94 63 132 34 57 42 81 45 133 4 58 7 65 32 78 16 8 31 23
34 32 5 18 36 152 36 157 0 2 -8 13 -19 25 -14 16 -17 31 -13 66 3 32 -2 63
-17 105 -12 33 -28 93 -36 133 -8 41 -29 105 -47 143 -53 111 -209 254 -441
406 -23 15 -81 38 -129 50 l-87 23 -113 -59 c-62 -32 -122 -66 -133 -76 -11
-9 -42 -32 -70 -50 -69 -45 -113 -88 -135 -131 -10 -19 -26 -41 -34 -48 -9 -8
-23 -36 -31 -64 -15 -49 -58 -127 -72 -127 -3 0 -42 23 -85 51 -108 69 -179
99 -253 106 l-61 6 -17 47 c-10 28 -28 55 -44 65 -26 18 -27 17 -50 -11 l-23
-29 -69 74 c-69 72 -71 74 -110 68 -37 -5 -49 0 -112 43 -39 26 -92 54 -117
60 -78 21 -93 46 -47 76 25 16 27 16 49 -5 21 -19 24 -20 30 -6 19 50 -17 105
-69 105 -25 0 -55 -29 -55 -53 0 -23 -13 -21 -35 3 -12 13 -31 20 -57 20 -21
0 -65 11 -97 25 -32 13 -91 31 -131 39 -40 9 -93 28 -120 45 -47 29 -48 29
-66 10 -22 -24 -34 -24 -34 0 0 14 -18 28 -62 49 -35 17 -74 33 -88 37 -14 5
-50 20 -80 36 -68 34 -240 106 -300 124 -25 8 -70 22 -100 30 -79 23 -134 63
-138 100 -2 17 -7 33 -11 37 -9 10 -133 -24 -201 -56 -100 -47 -140 -29 -57
26 28 19 79 58 112 87 33 28 71 54 85 58 14 3 56 30 95 60 38 29 87 58 108 63
20 6 55 15 76 20 29 8 46 20 61 45 17 28 28 35 54 35 37 0 54 11 85 58 20 29
27 32 70 32 40 0 57 7 104 40 30 22 107 64 169 94 117 55 157 86 178 136 16
39 39 38 90 -5 23 -19 50 -35 61 -35 13 0 19 -7 19 -24 0 -77 53 -77 178 1 50
32 67 63 42 78 -5 3 -10 13 -10 21 0 16 37 19 60 4 19 -12 40 6 40 35 0 34 10
36 55 10 55 -33 165 -35 165 -3 0 6 -13 26 -30 45 -17 19 -30 45 -30 60 0 22
3 24 23 17 30 -11 132 -7 172 6 19 6 45 27 60 46 14 18 34 34 44 34 27 0 150
83 150 101 1 22 30 29 121 29 41 0 80 4 86 8 7 4 29 30 50 58 58 77 135 134
181 134 9 0 43 18 75 41 32 22 97 59 146 81 48 22 111 57 140 76 63 41 96 43
156 8 52 -31 116 -99 116 -125 0 -26 47 -81 69 -81 28 0 41 20 30 48 -5 13 -7
32 -4 42 4 11 -3 23 -20 34 -30 20 -33 54 -6 87 18 22 24 23 129 20 101 -2
113 0 131 18 12 12 23 21 26 21 3 0 20 -16 38 -36 l31 -37 99 6 c70 5 114 13
155 30 31 13 75 30 97 37 77 24 170 75 211 116 37 36 84 68 165 110 14 8 49
18 77 24 98 18 112 40 112 175 0 83 2 94 19 100 12 3 21 18 24 40 3 19 21 70
41 112 39 87 51 165 62 410 7 139 7 142 -19 185 -43 73 -116 135 -183 153 -63
17 -126 39 -239 85 -89 36 -152 47 -340 60 -235 16 -249 20 -234 73 4 18 17
86 29 152 11 66 28 141 37 167 16 46 16 47 -16 135 -55 148 -89 221 -131 282
-22 32 -46 76 -53 97 -16 43 -19 46 -107 70 -58 16 -89 29 -164 71 -35 20
-117 24 -171 9z m110 -188 c19 -17 -13 -43 -101 -81 -90 -38 -115 -58 -146
-116 -21 -39 -43 -48 -63 -27 -24 23 -48 9 -168 -100 l-109 -99 6 -65 c3 -36
1 -82 -5 -104 -6 -21 -8 -40 -6 -43 3 -2 22 3 43 12 97 42 118 38 84 -17 -11
-18 -20 -40 -20 -49 0 -9 -15 -35 -32 -57 -30 -37 -37 -41 -80 -41 l-47 -1 2
-42 c2 -40 -1 -44 -33 -60 -19 -10 -39 -20 -45 -22 -6 -2 -4 -10 5 -19 11 -10
47 -16 121 -21 l107 -6 91 82 c74 66 91 86 86 103 -3 11 -8 72 -11 135 -3 64
-12 134 -21 158 -13 39 -13 45 1 67 9 14 40 43 68 66 44 35 56 40 85 34 29 -5
38 -1 71 33 29 30 52 42 91 51 72 15 110 37 116 66 3 14 7 36 10 50 8 40 40
50 80 25 93 -58 179 -416 122 -504 -23 -35 -50 -30 -115 20 -83 63 -112 38
-112 -99 0 -107 13 -143 79 -212 27 -28 58 -69 69 -91 39 -76 101 -111 164
-93 18 5 64 34 101 64 100 80 114 76 137 -45 21 -110 62 -162 96 -121 69 82
92 101 125 101 82 -1 226 -51 319 -110 96 -63 125 -133 75 -180 -24 -23 -36
-25 -185 -32 -88 -3 -164 -9 -169 -13 -14 -8 -2 -33 18 -40 25 -8 41 -48 41
-105 0 -33 5 -53 16 -62 62 -50 74 -67 74 -108 0 -63 -23 -106 -68 -129 -22
-11 -42 -27 -46 -36 -15 -41 -1 -144 21 -152 9 -4 34 14 64 43 82 81 100 114
110 200 4 42 14 83 20 91 38 44 66 -102 34 -171 -10 -20 -69 -86 -133 -147
-178 -170 -324 -258 -495 -299 -114 -28 -192 -26 -310 8 -111 32 -124 41 -108
70 12 23 33 28 163 37 79 6 87 5 97 -13 6 -11 25 -22 44 -26 18 -3 51 -15 72
-26 49 -25 72 -25 80 -1 13 41 24 136 19 158 -8 31 -39 30 -60 -2 -18 -28 -39
-32 -48 -10 -10 28 17 65 86 115 65 47 86 80 52 80 -9 0 -46 -13 -84 -30 -37
-16 -96 -37 -131 -45 -75 -17 -142 -43 -184 -69 -124 -79 -113 -76 -187 -40
l-53 26 -303 -150 c-166 -83 -308 -154 -315 -160 -6 -5 -59 -29 -117 -52 -82
-33 -114 -51 -145 -85 -31 -34 -50 -44 -85 -50 -46 -8 -157 -59 -340 -158 -57
-31 -110 -57 -117 -57 -19 0 -25 36 -14 78 16 59 64 119 101 127 19 4 66 38
121 88 49 45 96 82 105 82 9 0 21 15 29 38 22 65 65 96 65 48 0 -22 35 -55 49
-47 14 9 31 73 31 119 0 35 2 37 33 37 43 0 91 31 106 68 7 17 23 34 35 38 11
3 29 13 38 21 12 11 28 13 52 9 22 -4 48 -1 70 8 19 8 57 18 83 22 66 9 109
28 123 54 14 26 -2 50 -32 50 -11 0 -47 25 -81 55 -33 30 -65 55 -70 55 -5 0
-42 -30 -81 -68 -40 -37 -88 -75 -107 -84 -19 -9 -63 -30 -99 -47 -36 -17 -76
-40 -90 -50 l-25 -20 23 -24 c25 -26 20 -37 -16 -37 -14 0 -39 -11 -56 -24
-17 -13 -41 -26 -52 -30 -12 -3 -29 -15 -39 -26 -22 -25 -33 -25 -65 0 -34 27
-50 25 -50 -6 0 -14 -6 -38 -14 -52 -8 -15 -17 -39 -21 -54 -5 -28 -28 -37
-40 -18 -16 27 -53 7 -115 -62 -57 -63 -65 -77 -65 -112 0 -50 -20 -57 -39
-13 -7 19 -19 38 -25 41 -16 10 -70 -22 -83 -49 -9 -20 -7 -29 16 -56 15 -18
26 -41 24 -53 -3 -18 -10 -21 -58 -21 l-55 0 -15 -45 c-21 -62 -25 -68 -76
-92 -67 -31 -135 -114 -173 -211 -13 -33 -58 -62 -129 -83 -29 -9 -60 -24 -70
-34 -15 -16 -53 -33 -171 -73 -18 -7 -45 -27 -58 -44 -29 -38 -41 -40 -75 -14
l-25 20 -16 -34 c-20 -43 -63 -58 -84 -29 -16 23 -11 38 35 108 33 51 40 56
73 56 47 0 102 20 164 59 27 17 60 31 74 31 49 0 74 22 88 75 20 77 17 132 -7
140 -37 12 -59 -11 -84 -88 -3 -9 -14 -20 -23 -24 -10 -3 -30 -15 -45 -25 -21
-14 -32 -16 -53 -8 -14 5 -40 10 -57 10 -33 0 -33 -2 -7 86 15 50 7 74 -25 74
-21 0 -25 -6 -31 -50 -5 -34 -13 -54 -26 -61 -13 -7 -19 -21 -19 -45 0 -51
-13 -68 -79 -108 -37 -23 -63 -47 -71 -65 -7 -18 -21 -31 -33 -33 -16 -2 -26
-15 -37 -45 -19 -57 -6 -70 43 -47 44 21 67 8 67 -40 0 -42 -8 -52 -63 -76
-27 -12 -51 -28 -54 -36 -3 -9 -20 -14 -48 -14 -39 0 -46 -4 -65 -35 -25 -40
-130 -122 -169 -131 -52 -12 -349 -197 -511 -318 -36 -26 -82 -57 -103 -67
l-37 -20 -11 25 c-9 19 -8 35 6 74 19 52 16 82 -9 82 -20 0 -42 -43 -51 -100
-5 -31 -17 -54 -40 -75 -17 -16 -42 -47 -54 -68 -13 -21 -34 -45 -48 -54 -22
-15 -25 -14 -47 6 -32 30 -78 27 -118 -8 l-33 -29 -38 21 c-28 16 -42 19 -54
11 -27 -17 -26 -33 1 -44 30 -11 33 -37 11 -79 -18 -36 -38 -44 -62 -26 -27
21 -31 19 -44 -27 -21 -82 -76 -131 -179 -158 -61 -16 -127 -56 -135 -81 -6
-17 -13 -20 -35 -15 -20 3 -36 -1 -53 -14 -14 -11 -54 -33 -90 -49 -35 -16
-156 -84 -268 -152 -112 -68 -249 -142 -303 -166 -125 -54 -208 -97 -316 -162
-46 -29 -94 -50 -105 -49 -24 4 -33 49 -13 65 18 14 189 83 206 83 8 0 41 26
75 59 34 32 85 70 114 85 28 14 96 53 149 86 54 33 105 60 114 60 29 0 154 96
187 144 37 53 41 74 17 83 -22 8 -71 -17 -139 -72 -31 -26 -73 -54 -93 -62
-19 -8 -64 -34 -98 -58 -50 -34 -79 -46 -132 -55 -55 -9 -80 -20 -123 -52 -82
-61 -186 -111 -301 -142 -63 -18 -118 -58 -118 -86 0 -27 -38 -50 -83 -50 -38
0 -87 -34 -87 -61 0 -6 -9 -1 -19 12 l-20 24 -34 -33 c-18 -18 -50 -37 -70
-43 -20 -5 -41 -19 -47 -29 -10 -19 -12 -19 -35 -4 -23 15 -24 14 -39 -15 -20
-38 -37 -47 -110 -55 -74 -8 -229 -93 -252 -137 -10 -20 -26 -31 -57 -39 -23
-7 -64 -20 -92 -30 -27 -10 -67 -23 -87 -30 -42 -13 -88 -61 -88 -91 0 -28 44
-69 75 -69 14 0 25 -5 25 -11 0 -6 17 -26 37 -45 36 -33 36 -34 18 -54 -10
-11 -44 -27 -74 -36 -31 -8 -69 -20 -86 -27 -28 -11 -184 -158 -203 -193 -8
-14 -10 -12 -16 10 -9 36 -30 33 -88 -14 -28 -22 -53 -40 -57 -40 -3 0 -19 9
-36 20 -50 33 -134 24 -149 -17 -4 -9 -11 -78 -17 -151 -11 -164 -19 -184 -76
-194 -59 -10 -82 -24 -89 -56 -20 -92 -87 -182 -167 -223 -49 -25 -114 -85
-133 -120 -13 -27 -12 -30 26 -74 22 -25 40 -54 40 -63 0 -9 -16 -37 -35 -60
-19 -24 -37 -52 -40 -63 -11 -35 -32 -20 -68 48 -52 100 -69 178 -65 298 2 84
6 105 26 132 22 31 29 63 14 63 -20 0 -52 43 -52 70 0 34 2 35 30 18 16 -10
23 -10 36 4 25 25 9 74 -42 124 -43 41 -44 43 -44 108 0 36 -3 66 -6 66 -3 0
-14 -5 -26 -11 -11 -6 -48 -15 -82 -19 -75 -11 -96 -32 -96 -97 0 -77 -14 -94
-162 -186 -31 -20 -62 -45 -68 -56 -6 -12 -25 -28 -43 -36 -18 -8 -40 -20 -49
-27 -13 -9 -20 -10 -29 -1 -19 19 17 70 78 110 31 21 58 43 60 49 5 15 -173
107 -188 98 -17 -10 -39 -70 -39 -104 0 -25 -4 -30 -24 -30 -13 0 -45 10 -71
21 -45 20 -50 20 -79 5 -17 -9 -39 -21 -48 -28 -46 -33 -75 87 -44 178 9 26
16 72 16 101 0 47 4 58 28 81 37 34 43 53 32 93 -8 27 -5 40 24 88 18 31 46
77 60 104 41 73 136 168 200 200 68 34 169 46 391 47 l149 0 36 -35 36 -35 42
17 c32 12 46 13 54 5 17 -17 -4 -37 -82 -78 -79 -41 -113 -74 -104 -98 7 -19
54 -46 80 -46 18 0 118 63 130 81 3 6 20 8 38 5 39 -7 71 14 154 102 44 46 68
63 102 72 25 6 73 20 108 31 34 10 71 19 81 19 24 0 78 44 86 71 4 11 30 31
58 45 92 44 122 61 141 83 11 12 27 21 37 21 24 0 118 76 129 105 11 30 45 53
89 61 25 5 36 14 45 36 19 52 156 129 156 88 0 -4 -18 -19 -40 -34 -45 -29
-51 -51 -17 -60 42 -11 72 -5 127 24 30 17 70 30 88 30 42 0 51 23 23 60 -26
37 -26 48 1 77 14 15 33 23 55 23 19 0 43 5 54 10 10 6 44 15 74 21 86 16 152
53 175 100 17 33 25 39 53 39 37 0 77 24 77 46 0 8 35 30 83 53 69 32 89 46
121 89 35 48 56 64 56 43 0 -4 9 -20 20 -34 l20 -25 51 34 c28 18 69 39 92 45
73 19 86 27 92 56 11 52 30 77 70 92 22 8 56 26 75 41 51 39 105 65 187 89 41
12 92 36 117 56 25 18 74 53 110 75 64 41 72 51 78 110 2 14 13 30 28 37 13 7
30 20 37 29 12 16 15 16 38 -6 l25 -24 30 22 c16 13 44 25 62 28 58 10 62 12
48 29 -18 22 -5 42 32 50 60 12 68 16 68 35 0 30 28 50 71 50 35 0 48 7 95 52
l54 51 74 -23 c80 -25 110 -23 158 11 32 23 62 74 53 89 -3 6 6 10 21 10 15 0
41 8 58 19 22 13 57 20 123 24 107 5 133 18 163 77 21 42 48 59 151 95 35 12
50 24 59 45 15 36 39 38 70 5 l23 -24 43 30 c55 38 71 61 79 122 10 66 29 85
104 103 62 14 347 150 462 220 31 19 61 34 67 34 6 0 27 14 45 30 19 17 39 30
44 30 15 0 163 79 213 114 24 17 121 70 215 117 259 130 423 216 455 239 15
11 32 20 38 20 5 0 29 14 53 32 24 17 89 52 144 76 55 25 107 51 115 58 8 7
35 22 60 33 54 25 183 114 247 171 56 49 81 57 121 36 58 -30 121 -16 171 38
23 24 23 26 7 50 -21 33 -21 31 14 46 40 17 48 50 21 95 -12 20 -21 45 -21 57
0 11 -9 33 -21 49 -30 43 -34 89 -12 135 11 21 25 61 32 88 7 27 19 62 27 78
13 25 13 29 0 34 -8 3 -27 -1 -43 -10 -35 -17 -48 -11 -66 32 l-13 32 -24 -32
c-22 -29 -24 -30 -36 -13 -28 38 -11 125 24 125 27 0 79 36 85 59 6 24 -17 53
-36 45 -7 -2 -21 -18 -31 -35 -14 -24 -20 -28 -32 -18 -18 15 -18 44 1 72 8
13 17 62 21 121 7 93 8 98 33 107 47 16 56 25 66 66 6 23 18 50 29 62 18 20
18 21 -8 31 -37 14 -29 30 31 63 46 25 135 113 226 225 23 29 25 36 14 59 -10
23 -8 28 16 49 34 29 47 30 47 4 0 -36 38 -24 57 18 15 31 24 38 58 43 22 3
69 20 105 37 94 45 213 60 245 30z m223 -793 c2 -21 0 -50 -3 -64 l-7 -26 -13
25 c-15 26 -20 92 -8 104 15 14 28 -2 31 -39z m1042 -722 c0 -55 -22 -93 -55
-93 -41 0 -44 121 -3 162 19 19 21 19 39 2 14 -13 19 -31 19 -71z m-9517 24
c58 -31 97 -68 97 -93 0 -22 -32 -16 -79 16 -24 17 -49 30 -54 30 -15 0 -248
-242 -244 -254 4 -12 19 -20 79 -41 26 -9 63 -29 84 -46 20 -16 42 -29 49 -29
7 0 41 27 75 60 l63 61 37 -36 c42 -41 81 -46 120 -15 14 11 35 20 46 20 32 0
87 -68 133 -162 49 -103 71 -127 105 -109 39 21 61 11 64 -31 4 -46 -12 -78
-38 -78 -11 0 -20 4 -20 8 0 19 -43 52 -80 62 -63 17 -181 15 -217 -3 -36 -19
-57 -66 -43 -101 21 -56 65 -72 292 -106 131 -19 164 -31 221 -85 37 -35 30
-49 -26 -53 -55 -4 -62 -24 -24 -60 20 -19 37 -23 114 -25 50 -1 95 1 99 5 4
5 -1 17 -11 28 -22 24 -13 66 17 75 16 6 28 -1 52 -28 17 -20 43 -39 58 -43
56 -13 61 -54 7 -54 -53 0 -27 -25 28 -28 44 -3 55 1 75 22 12 13 32 25 43 26
62 6 69 -7 30 -60 -32 -43 -32 -58 3 -66 15 -4 35 -14 45 -22 15 -14 24 -14
68 -3 65 17 88 9 121 -39 42 -60 88 -47 88 24 0 14 3 26 6 26 3 0 30 -20 58
-45 42 -35 61 -45 89 -45 23 0 39 -6 45 -16 13 -23 46 -13 50 14 5 30 -12 49
-63 73 -43 20 -73 59 -61 78 11 17 41 13 70 -10 21 -17 36 -20 68 -16 54 7 65
2 88 -44 28 -54 79 -109 101 -109 15 0 19 7 19 35 0 39 21 55 45 35 13 -10 19
-9 35 5 11 10 22 16 25 13 3 -3 12 -31 20 -63 23 -88 44 -111 107 -118 29 -4
71 -7 93 -7 36 0 46 -6 100 -65 46 -49 67 -65 88 -65 33 0 34 7 6 36 l-22 23
36 36 c48 48 58 45 56 -15 -2 -40 3 -57 26 -90 35 -50 69 -79 104 -86 14 -3
37 -11 51 -19 14 -7 62 -23 106 -34 73 -19 117 -35 211 -77 17 -8 59 -14 92
-14 42 0 80 -8 121 -24 33 -14 86 -32 117 -41 80 -23 121 -46 181 -100 58 -52
85 -95 76 -119 -7 -17 -139 -83 -224 -111 -35 -12 -65 -31 -93 -61 -23 -24
-51 -44 -62 -44 -32 0 -154 -63 -218 -113 -61 -48 -112 -64 -169 -52 -46 10
-235 73 -267 89 -14 8 -42 17 -61 21 -44 9 -148 53 -265 110 -120 60 -340 159
-445 202 -99 40 -118 49 -144 65 -71 46 -133 81 -216 123 -52 26 -124 64 -160
85 -57 33 -92 48 -234 103 -16 6 -77 37 -135 70 -58 32 -137 75 -176 94 -38
19 -85 46 -102 59 -18 14 -52 32 -75 40 -23 8 -93 41 -154 73 -61 33 -137 66
-168 75 -53 16 -91 38 -167 98 -54 42 -83 45 -117 11 -27 -27 -29 -32 -22 -78
13 -86 -15 -142 -141 -278 -60 -65 -76 -77 -103 -77 -60 0 -132 26 -202 72
-88 59 -253 228 -283 291 -22 44 -22 52 -12 130 6 45 21 123 33 174 19 82 20
96 8 133 -17 52 -5 90 34 109 53 25 90 3 142 -85 9 -15 29 -18 155 -22 l144
-4 28 27 c15 14 27 36 27 49 0 13 11 44 25 70 l25 46 -29 48 c-16 26 -36 69
-46 96 -9 28 -29 68 -46 90 -26 35 -29 48 -29 112 0 110 7 132 49 154 20 10
64 44 99 74 72 64 77 64 175 13z m812 -728 c38 -22 101 -49 139 -60 83 -22
284 -119 311 -149 20 -23 41 -26 47 -8 4 10 10 10 31 1 49 -22 63 -143 17
-143 -10 0 -42 23 -70 51 l-51 51 -45 -11 c-40 -10 -48 -9 -73 8 -15 11 -51
30 -81 44 -30 13 -68 35 -85 49 -44 37 -84 55 -161 74 -76 18 -117 39 -153 78
-37 39 -22 56 46 56 50 0 68 -6 128 -41z m3905 -1916 c-4 -42 -8 -48 -31 -51
-14 -2 -31 4 -38 12 -10 11 -6 21 20 50 43 50 56 47 49 -11z m233 -23 c37 -29
128 -70 157 -70 14 0 50 -16 80 -36 30 -19 71 -39 90 -44 19 -5 59 -25 88 -43
90 -59 213 -109 291 -119 18 -2 34 -19 57 -57 42 -72 66 -91 119 -91 43 0 286
-57 335 -79 14 -6 47 -27 74 -46 29 -21 60 -35 77 -35 17 0 47 -9 69 -20 22
-11 46 -20 54 -20 28 0 66 -73 74 -141 l7 -64 62 -5 c34 -3 64 -8 68 -11 9
-10 -45 -63 -95 -94 -25 -15 -73 -56 -107 -92 -60 -64 -62 -65 -84 -49 -13 9
-27 16 -31 16 -11 0 -48 -76 -41 -84 4 -3 23 -6 43 -6 46 0 116 43 161 99 18
23 49 52 69 63 19 12 47 32 62 44 15 12 49 27 77 34 27 6 55 18 62 26 13 16
45 19 54 4 13 -21 206 -170 220 -170 9 0 27 -7 41 -16 18 -12 37 -15 69 -11
53 8 86 -3 132 -43 18 -16 70 -48 116 -70 l83 -40 32 -72 c24 -53 29 -75 21
-84 -14 -17 -73 -34 -116 -34 -69 0 -80 -20 -33 -65 l29 -28 50 22 c27 11 64
21 80 21 17 0 39 4 49 10 9 5 34 16 54 25 43 20 49 36 31 89 -17 49 -16 101 2
201 22 123 20 226 -6 259 -31 39 -5 62 41 34 16 -11 29 -6 90 37 159 112 179
121 298 132 67 6 216 -37 232 -67 5 -10 10 -41 10 -68 0 -34 6 -57 19 -73 18
-22 20 -22 26 -6 12 29 44 19 93 -30 67 -68 97 -138 111 -254 6 -53 18 -116
27 -140 18 -52 13 -133 -11 -159 -9 -10 -35 -23 -58 -29 -62 -16 -80 -31 -39
-31 58 0 80 -41 73 -135 -2 -18 -21 -50 -49 -84 -66 -77 -210 -219 -257 -253
-37 -27 -44 -29 -100 -23 -45 5 -87 1 -157 -14 -89 -19 -99 -20 -133 -5 -83
34 -266 6 -292 -46 -19 -37 -15 -109 7 -158 15 -33 29 -47 57 -58 74 -29 145
-172 164 -329 5 -49 15 -121 20 -160 6 -38 11 -84 12 -101 1 -43 -46 -119 -95
-154 -39 -29 -46 -30 -142 -30 -204 0 -318 34 -462 136 -84 59 -96 94 -31 94
35 0 109 -32 195 -84 32 -19 75 -37 96 -41 22 -4 49 -13 60 -21 35 -24 74 -18
90 14 27 53 39 56 95 28 28 -14 57 -26 64 -26 8 0 27 25 42 56 l27 56 -32 33
c-20 20 -64 46 -109 65 -63 25 -89 30 -146 29 -83 -2 -234 30 -302 64 -47 23
-225 53 -245 41 -19 -12 -50 11 -92 70 -24 34 -65 79 -90 100 -29 23 -46 46
-46 59 -1 12 -9 40 -20 62 -11 23 -19 62 -20 91 0 66 47 206 104 303 24 42 55
99 69 126 l25 50 -45 88 c-50 96 -80 127 -126 127 -19 0 -41 9 -56 24 -15 13
-51 31 -82 40 -31 9 -62 23 -69 31 -8 9 -21 13 -32 9 -14 -4 -22 3 -33 31 -16
37 -66 75 -99 75 -11 0 -36 -18 -57 -40 l-38 -40 -16 22 c-21 31 -19 63 6 79
13 9 18 20 14 31 -9 24 -117 103 -188 139 -32 17 -60 37 -63 47 -13 42 -22 47
-91 54 -104 11 -245 59 -298 102 -27 22 -74 46 -120 61 -42 14 -91 36 -108 49
-18 13 -61 38 -97 56 -35 18 -82 43 -103 57 -22 13 -56 26 -77 28 -21 2 -61
19 -93 39 -85 54 -229 124 -283 137 -67 16 -296 105 -366 141 -31 17 -59 37
-63 45 -12 32 79 129 158 169 26 14 50 30 52 37 2 7 6 24 9 39 6 25 9 26 93
33 149 11 163 17 235 103 30 37 55 40 91 12z m-553 -121 c24 -44 -16 -114 -61
-107 -32 4 -35 26 -5 39 17 8 26 20 26 35 0 52 21 69 40 33z m-2380 -1270 c0
-15 -47 -40 -64 -33 -23 9 -20 40 6 58 20 14 24 14 40 -1 10 -9 18 -20 18 -24z
m-1443 -1036 c-4 -36 -38 -133 -73 -215 -19 -42 -52 -58 -121 -58 -63 0 -65
20 -9 80 25 27 58 68 74 92 64 99 97 138 115 138 16 0 18 -6 14 -37z"/>
<path d="M9598 7805 c-20 -14 -41 -25 -47 -25 -26 0 -107 -130 -85 -137 6 -2
19 -10 29 -17 18 -13 18 -15 0 -52 -22 -48 -45 -130 -45 -166 0 -24 4 -28 28
-28 33 0 75 41 114 110 14 25 35 54 47 64 40 36 17 67 -58 76 -34 4 -47 10
-49 24 -9 45 44 91 120 104 49 9 57 23 29 51 -27 27 -38 26 -83 -4z"/>
<path d="M9861 7753 c1 -31 43 -136 56 -141 36 -11 26 82 -13 128 -29 34 -44
38 -43 13z"/>
<path d="M9828 6809 c-30 -15 -38 -25 -38 -47 0 -31 25 -72 43 -72 6 0 28 17
48 38 20 20 47 44 60 54 52 36 -49 61 -113 27z"/>
<path d="M10415 6815 c-3 -8 -7 -22 -10 -31 -3 -11 -11 -14 -23 -9 -9 4 -42
10 -72 15 -30 4 -76 13 -101 20 -57 16 -74 10 -82 -28 -3 -17 -19 -45 -35 -64
-36 -40 -53 -73 -45 -82 4 -3 41 -3 83 0 l77 7 71 -43 c88 -52 113 -50 142 13
11 24 41 63 65 87 61 60 59 100 -5 100 -9 0 -23 7 -30 15 -7 8 -17 15 -22 15
-5 0 -11 -7 -13 -15z"/>
<path d="M9621 6781 c-67 -23 -97 -53 -127 -127 -29 -72 -30 -86 -3 -110 29
-26 51 -8 67 57 14 54 45 109 63 109 17 0 9 -37 -11 -55 -29 -26 -22 -59 12
-63 35 -4 106 33 120 63 16 35 2 111 -25 130 -27 19 -30 19 -96 -4z"/>
<path d="M9072 6600 c-27 -25 -27 -32 -4 -53 23 -21 56 -22 76 -1 28 28 17 54
-30 68 -13 4 -28 -1 -42 -14z"/>
<path d="M7871 5515 c-59 -43 -77 -72 -69 -112 6 -34 33 -24 113 43 105 87
100 81 85 99 -22 27 -65 17 -129 -30z"/>
<path d="M7681 5395 c-15 -20 -25 -24 -45 -19 -22 5 -28 0 -50 -45 -33 -64
-33 -81 2 -113 61 -57 102 -70 102 -32 0 8 16 46 35 84 37 73 42 99 25 131
-15 26 -45 24 -69 -6z"/>
<path d="M6942 5204 c-25 -17 -29 -52 -7 -61 21 -8 55 25 55 54 0 27 -16 29
-48 7z"/>
<path d="M6793 5140 c-15 -39 -35 -51 -48 -30 -9 15 -47 12 -72 -5 -11 -8 -39
-17 -61 -21 -29 -4 -42 -12 -46 -27 -8 -33 3 -40 61 -33 41 5 61 2 82 -10 18
-11 38 -14 54 -10 24 6 32 12 101 92 l36 41 -23 21 c-37 35 -66 29 -84 -18z"/>
<path d="M6429 5005 c-33 -18 -44 -44 -24 -52 38 -14 115 22 115 54 0 18 -57
16 -91 -2z"/>
<path d="M6393 4555 c-36 -25 -67 -75 -55 -87 22 -22 124 65 107 92 -9 14 -27
13 -52 -5z"/>
<path d="M6112 4428 c-27 -14 -38 -49 -22 -77 13 -26 24 -25 75 2 53 29 58 60
14 76 -37 13 -37 13 -67 -1z"/>
<path d="M5836 4415 c-20 -20 -20 -45 -2 -70 14 -19 15 -19 35 -1 26 24 27 48
2 70 -17 16 -20 16 -35 1z"/>
<path d="M5482 4318 c-17 -17 -15 -36 8 -85 29 -64 79 -50 80 23 0 51 -58 92
-88 62z"/>
<path d="M5390 4199 c-28 -28 -30 -34 -16 -47 12 -12 20 -13 44 -3 32 13 58
52 48 70 -13 20 -44 11 -76 -20z"/>
<path d="M5145 3894 c-32 -35 -31 -48 6 -74 16 -12 27 -25 24 -29 -4 -3 -47
-8 -97 -12 -91 -5 -113 -15 -100 -47 4 -12 20 -14 86 -9 108 8 131 18 199 89
64 67 64 75 -2 97 -55 18 -89 14 -116 -15z"/>
<path d="M4849 3699 c-16 -16 -18 -23 -8 -35 23 -28 109 -9 109 25 0 34 -70
41 -101 10z"/>
<path d="M2444 2455 c-29 -29 -31 -56 -6 -78 27 -24 38 -21 62 18 16 26 19 39
11 53 -17 32 -40 34 -67 7z"/>
<path d="M1012 2380 c-23 -10 -67 -40 -98 -64 -30 -25 -77 -52 -104 -60 -70
-21 -85 -31 -104 -70 -45 -95 -72 -290 -42 -302 20 -8 138 79 160 118 31 53
94 125 130 147 18 11 56 26 85 32 58 12 72 30 47 58 -15 16 -15 21 -1 55 9 21
15 52 13 70 -4 39 -27 43 -86 16z"/>
<path d="M2033 2310 c-43 -17 -104 -61 -98 -70 7 -11 124 -14 149 -4 23 9 21
61 -3 74 -22 11 -19 11 -48 0z"/>
<path d="M747 5960 c-35 -27 -36 -60 -3 -60 28 0 45 17 48 50 4 31 -13 35 -45
10z"/>
<path d="M1447 5780 c-31 -10 -57 -28 -57 -41 0 -5 14 -16 32 -25 36 -19 100
-14 148 11 32 17 40 49 14 59 -22 8 -103 6 -137 -4z"/>
<path d="M1749 5680 c31 -27 104 -28 99 -2 -3 13 -15 18 -63 20 l-60 2 24 -20z"/>
<path d="M816 5485 c-47 -18 -76 -42 -76 -63 0 -27 78 -91 128 -105 26 -8 80
-31 120 -51 51 -26 85 -36 118 -36 49 0 114 25 114 44 0 25 -73 114 -107 132
-21 10 -62 35 -93 53 -64 41 -140 50 -204 26z"/>
<path d="M2276 5414 c-9 -8 -16 -22 -16 -30 0 -44 68 -118 159 -174 26 -16 54
-41 61 -56 8 -14 27 -35 43 -46 l29 -21 28 22 c36 26 44 26 78 1 15 -11 46
-23 67 -27 57 -8 92 -29 110 -62 8 -16 25 -33 37 -37 13 -4 50 -32 83 -62 32
-30 73 -61 90 -69 16 -8 45 -25 64 -38 29 -21 45 -25 107 -25 67 0 74 -2 93
-27 16 -23 23 -26 37 -17 30 18 40 42 27 62 -7 9 -21 36 -32 59 -12 27 -34 51
-63 69 -23 15 -54 35 -68 44 -14 9 -50 25 -80 35 -30 10 -77 32 -105 50 -27
18 -180 98 -340 179 -248 126 -295 146 -322 141 -29 -5 -33 -3 -39 20 -7 29
-25 32 -48 9z"/>
<path d="M3594 5185 c-8 -21 3 -133 17 -175 9 -23 16 -29 28 -24 40 16 54 15
91 -11 73 -51 147 -68 171 -39 20 25 -26 59 -89 68 -28 4 -54 11 -57 16 -4 6
-24 19 -46 30 -45 24 -70 57 -78 108 -7 38 -27 54 -37 27z"/>
<path d="M4064 4896 c-9 -36 2 -58 46 -90 21 -16 44 -42 49 -57 11 -31 56 -59
97 -59 15 0 41 -8 58 -19 39 -24 91 -32 136 -23 44 10 48 31 13 66 -39 40 -72
54 -157 70 -101 20 -151 47 -176 96 -24 47 -56 54 -66 16z"/>
<path d="M3420 4775 c-31 -37 42 -103 101 -90 16 4 31 11 34 16 10 15 -13 46
-49 68 -40 25 -69 27 -86 6z"/>
<path d="M3604 4635 c-12 -31 47 -75 72 -54 19 15 18 25 -6 49 -24 24 -58 26
-66 5z"/>
<path d="M3720 4612 c0 -14 54 -84 86 -113 16 -14 66 -54 111 -88 81 -62 82
-62 111 -47 17 9 37 23 47 32 15 15 15 18 -1 35 -29 32 -106 77 -179 104 -39
15 -84 40 -100 56 -29 27 -75 40 -75 21z"/>
<path d="M6791 3576 c-19 -20 -39 -36 -43 -36 -5 0 -11 14 -14 30 -11 51 -55
36 -90 -31 -32 -64 -10 -149 40 -149 30 0 44 17 48 59 l3 35 62 -3 c56 -2 65
0 86 23 14 14 34 26 46 26 36 0 61 19 61 45 0 22 -4 25 -39 25 -21 0 -58 3
-82 6 -41 5 -47 3 -78 -30z"/>
<path d="M7764 3183 c-4 -10 -23 -32 -42 -49 -39 -34 -39 -64 0 -64 44 1 148
58 148 81 0 9 -42 32 -78 43 -16 6 -24 3 -28 -11z"/>
<path d="M9470 3191 c-12 -9 -11 -14 8 -38 43 -53 47 -69 26 -100 l-19 -28 -3
28 c-4 35 -31 49 -90 45 l-47 -3 4 -90 c4 -103 9 -118 59 -161 l36 -31 -44
-28 c-59 -37 -71 -54 -64 -88 4 -18 0 -34 -10 -46 -21 -23 -11 -83 21 -117 32
-35 47 -26 54 34 9 69 15 82 38 82 28 0 35 -34 15 -65 -23 -34 -12 -41 41 -27
66 18 76 16 179 -28 51 -22 107 -40 125 -40 28 0 34 6 61 60 31 62 38 100 19
100 -7 0 -42 24 -78 54 -36 29 -84 65 -106 78 -22 14 -60 42 -83 62 -63 52
-67 51 -83 -41 -15 -83 -18 -93 -36 -93 -13 0 -15 11 -9 78 6 70 5 81 -14 104
-24 31 -19 48 19 71 40 24 74 21 109 -8 42 -35 72 -32 123 14 l44 40 -65 66
c-94 97 -188 143 -230 116z"/>
<path d="M7580 3157 c-37 -19 -38 -52 -1 -72 58 -29 112 6 91 59 -11 29 -47
35 -90 13z"/>
<path d="M8335 2769 c-9 -14 17 -42 60 -65 32 -17 36 -17 51 -2 23 22 11 46
-31 63 -41 18 -71 19 -80 4z"/>
<path d="M9187 2579 c-18 -10 -18 -12 -1 -30 21 -23 76 -25 95 -3 11 14 10 18
-6 30 -22 16 -63 18 -88 3z"/>
<path d="M8675 2530 c-3 -5 -24 -10 -46 -10 -72 0 -99 -29 -59 -65 13 -12 27
-15 44 -11 14 3 28 2 31 -4 3 -5 22 -10 41 -10 28 0 36 5 45 26 10 28 3 64
-15 76 -16 11 -34 10 -41 -2z"/>
<path d="M9370 2361 c-20 -39 -3 -147 26 -158 19 -7 74 44 74 70 0 22 -45 84
-71 98 -14 7 -21 5 -29 -10z"/>
<path d="M9029 2165 c-49 -27 -78 -95 -40 -95 23 0 104 77 98 93 -6 18 -28 18
-58 2z"/>
<path d="M8854 2068 c-12 -13 -31 -38 -44 -57 l-24 -34 30 7 c34 8 86 61 82
83 -5 25 -22 25 -44 1z"/>
<path d="M8686 1988 c-9 -12 -16 -28 -16 -35 0 -7 -6 -13 -14 -13 -20 0 -46
-39 -46 -67 0 -26 77 -184 107 -222 32 -39 49 -22 57 53 9 86 1 115 -33 122
-14 3 -36 7 -49 10 -23 5 -23 5 13 45 33 37 36 45 30 77 -11 60 -23 67 -49 30z"/>
<path d="M8207 7408 c-3 -18 -9 -45 -12 -60 -10 -40 12 -36 32 6 9 21 13 44 9
60 -9 36 -23 33 -29 -6z"/>
<path d="M1641 5010 c-47 -59 -59 -93 -41 -115 20 -24 62 -17 120 20 33 21 61
33 70 29 42 -19 93 4 88 40 -3 23 -93 65 -159 73 -34 5 -39 2 -78 -47z"/>
<path d="M7569 4687 c-15 -12 -29 -29 -32 -38 -6 -18 27 -79 42 -79 15 0 70
68 77 95 3 13 3 29 -1 34 -11 19 -59 12 -86 -12z"/>
<path d="M7286 4579 c-39 -40 -66 -59 -83 -59 -37 0 -28 -41 12 -52 61 -17
175 12 189 47 19 52 -9 128 -46 124 -7 -1 -39 -28 -72 -60z"/>
<path d="M2 4598 c2 -12 10 -23 18 -23 22 0 19 39 -3 43 -15 3 -18 -1 -15 -20z"/>
<path d="M7025 4394 c-68 -59 -75 -68 -62 -82 12 -11 27 -13 62 -8 62 10 138
79 133 123 -2 22 -9 29 -30 31 -20 2 -43 -12 -103 -64z"/>
<path d="M9092 4079 c1 -13 8 -23 13 -21 15 3 12 35 -3 40 -9 3 -13 -3 -10
-19z"/>
<path d="M9057 4023 c-11 -10 -8 -43 3 -43 9 0 30 31 30 44 0 8 -25 7 -33 -1z"/>
<path d="M10767 3583 c-12 -12 -7 -50 8 -63 12 -10 16 -9 21 4 13 33 -10 79
-29 59z"/>
<path d="M10777 2096 c-3 -8 2 -29 11 -47 12 -24 25 -35 45 -37 38 -5 36 25
-6 66 -37 36 -43 38 -50 18z"/>
<path d="M5906 1471 c-5 -7 3 -27 19 -46 30 -40 35 -42 35 -17 0 26 -45 78
-54 63z"/>
<path d="M6715 1046 c-12 -9 -20 -28 -22 -55 -3 -47 7 -53 24 -13 7 15 18 35
25 44 18 25 -2 43 -27 24z"/>
<path d="M1187 32 c-23 -25 -21 -32 6 -32 32 0 49 14 41 33 -8 22 -27 21 -47
-1z"/>
</g>
</svg>
